<svg width="70" height="56" viewBox="0 0 70 56" fill="none" xmlns="http://www.w3.org/2000/svg">
<rect width="70" height="56" fill="white"/>
<path d="M50.176 48.4L49.856 50.256L36.288 50.192L36.224 48.272L41.536 46.864L42.304 11.216L41.536 11.088L27.968 48.912H24.32L11.648 12.048L10.112 12.176L12.032 46.672L16.064 47.952L16.448 50.32L3.2 50.064L3.072 48.4L6.848 46.992L6.336 7.824L2.112 6.352L1.92 4.88L12.48 5.392L14.272 8.272L25.92 43.088L26.496 42.896L38.08 7.248L39.68 5.072H49.856V7.12L46.912 7.824L45.632 46.992L50.176 48.4ZM57.245 42.512L62.173 43.792L62.301 49.616L56.733 50.832L54.045 46.032L57.245 42.512Z" fill="black"/>
</svg>
