<svg width="241" height="94" viewBox="0 0 241 94" fill="none" xmlns="http://www.w3.org/2000/svg">
<path d="M50.176 56.4L49.856 58.256L36.288 58.192L36.224 56.272L41.536 54.864L42.304 19.216L41.536 19.088L27.968 56.912H24.32L11.648 20.048L10.112 20.176L12.032 54.672L16.064 55.952L16.448 58.32L3.2 58.064L3.072 56.4L6.848 54.992L6.336 15.824L2.112 14.352L1.92 12.88L12.48 13.392L14.272 16.272L25.92 51.088L26.496 50.896L38.08 15.248L39.68 13.072H49.856V15.12L46.912 15.824L45.632 54.992L50.176 56.4ZM60.829 40.848L75.805 38.48L74.013 30.096L69.725 28.496L61.341 31.312L60.765 41.104L60.829 40.848ZM73.821 25.808L78.941 30.288L80.797 41.296L60.765 44.496L64.221 54.672L71.773 54.48L80.733 51.792L81.245 56.848L63.197 59.408L55.325 47.76L56.221 31.312L64.797 25.104L73.821 25.808ZM109.718 31.632L105.814 34.96L102.422 30.032L97.2375 31.76L95.7015 35.152L95.9575 54.352L99.7335 55.568L99.3495 57.808H88.0215L87.8295 56.08L90.8375 54.864L90.7735 29.264L87.6375 27.472L90.3895 23.952L95.0615 26.96L95.4455 29.136L98.7095 27.856L105.174 26.256L109.718 31.632ZM136.28 31.632L132.376 34.96L128.984 30.032L123.8 31.76L122.264 35.152L122.52 54.352L126.296 55.568L125.912 57.808H114.584L114.392 56.08L117.4 54.864L117.336 29.264L114.2 27.472L116.952 23.952L121.624 26.96L122.008 29.136L125.272 27.856L131.736 26.256L136.28 31.632ZM154.075 58.832L141.275 58.96L140.955 57.104L144.347 55.76L144.603 28.688L139.931 27.088L139.483 25.488L152.795 24.72L153.435 26L149.531 28.176L149.275 55.696L153.819 57.04L154.075 58.832ZM145.307 20.624L143.131 16.272L145.755 13.776L149.851 14.288L150.171 18.576L145.307 20.624ZM181.615 57.744L171.695 58.256L159.215 54.16L158.703 38.352L164.143 27.408L173.167 24.336L180.079 28.304L176.623 37.328L174.639 36.304L176.623 30.352L174.127 28.304L166.639 31.824L163.183 39.76L164.143 51.216L171.695 54.16L180.079 52.752L181.615 57.744ZM215.259 55.696L212.635 59.856L207.259 56.528L198.363 42.32L195.547 43.728V55.376L200.411 56.784L200.795 58.576L188.059 58.896L187.803 56.976L190.875 55.696L189.595 15.632L186.075 14.672L186.203 12.944L199.963 12.624L199.771 15.12L195.419 16.08L195.547 40.464L198.107 39.504L203.291 32.656L207.643 24.656L211.355 25.808L206.491 34.96L202.011 40.976L211.099 53.072L215.259 55.696ZM220.37 50.512L225.298 51.792L225.426 57.616L219.858 58.832L217.17 54.032L220.37 50.512Z" fill="white"/>
</svg>
